<?xml version="1.0" standalone="no"?>
<!DOCTYPE svg PUBLIC "-//W3C//DTD SVG 20010904//EN"
 "http://www.w3.org/TR/2001/REC-SVG-20010904/DTD/svg10.dtd">
<svg version="1.0" xmlns="http://www.w3.org/2000/svg"
 width="700.000000pt" height="700.000000pt" viewBox="0 0 700.000000 700.000000"
 preserveAspectRatio="xMidYMid meet">
<metadata>
Created by potrace 1.11, written by Peter Selinger 2001-2013
</metadata>
<g transform="translate(0.000000,700.000000) scale(0.100000,-0.100000)"
fill="#000000" stroke="none">
<path d="M3933 6986 c-40 -18 -92 -72 -100 -105 -3 -14 -9 -30 -13 -36 -21
-30 -174 -496 -195 -595 -27 -123 -40 -159 -75 -205 -84 -112 -128 -247 -132
-415 -2 -67 -6 -81 -40 -137 -21 -34 -38 -67 -38 -71 0 -5 -30 -17 -67 -27
-38 -10 -106 -31 -151 -47 -71 -25 -87 -27 -102 -16 -9 7 -69 57 -131 112
-197 170 -369 271 -504 295 -72 13 -113 7 -180 -23 -128 -59 -192 -186 -220
-441 -6 -48 -5 -312 0 -375 2 -25 7 -78 10 -118 4 -40 8 -83 10 -95 2 -12 6
-47 9 -77 6 -52 9 -75 21 -146 4 -22 -3 -49 -24 -90 -94 -192 -163 -407 -186
-579 -4 -27 -11 -77 -15 -110 -4 -33 -6 -152 -3 -265 7 -301 7 -384 -1 -490
-6 -88 -9 -116 -21 -195 -3 -16 -7 -48 -11 -70 -9 -67 -52 -233 -93 -365 -79
-252 -110 -393 -136 -620 -12 -110 -14 -148 -14 -315 0 -175 3 -259 14 -332 9
-59 -7 -56 -76 15 -92 95 -102 132 -104 392 -2 262 -8 305 -51 397 -95 200
-321 304 -539 248 -162 -43 -297 -183 -336 -350 -12 -53 -15 -477 -4 -575 44
-389 261 -741 590 -952 101 -66 177 -102 297 -142 203 -68 78 -64 2328 -61
2021 3 2036 3 2114 24 251 66 426 262 429 481 1 93 -5 125 -36 194 -33 72 -79
132 -143 185 -29 25 -52 47 -50 50 2 3 7 44 11 91 4 47 9 94 11 105 5 27 5
367 -1 434 -22 267 -52 420 -145 736 -98 336 -129 616 -105 960 24 346 -2 576
-96 860 -33 100 -140 325 -187 395 -17 24 -29 47 -27 50 1 3 6 34 9 70 4 36 9
81 11 100 3 19 8 76 11 125 27 413 -7 637 -118 777 -75 95 -205 126 -343 81
-52 -17 -116 -45 -150 -66 -124 -76 -255 -176 -383 -293 l-23 -21 -74 24 -74
24 0 78 c0 45 -9 116 -21 169 -20 84 -20 95 -7 165 19 99 13 210 -15 300 -19
61 -23 95 -24 227 0 139 -6 235 -19 325 -10 67 -16 112 -21 155 -6 52 -28 106
-52 133 -43 48 -141 69 -199 43z"/>
<path d="M670 6918 c-11 -18 -25 -49 -31 -68 -6 -19 -31 -92 -56 -161 -44
-123 -46 -127 -87 -147 -76 -37 -191 -89 -230 -103 -41 -15 -76 -51 -76 -79 0
-27 27 -44 187 -115 131 -58 154 -72 167 -99 14 -31 58 -150 100 -275 24 -72
52 -99 84 -82 11 6 24 23 30 38 6 16 32 91 60 168 27 77 54 150 60 161 7 13
69 46 168 90 170 75 196 96 175 140 -8 17 -35 36 -89 60 -42 20 -97 45 -122
56 -25 12 -64 29 -87 39 -24 10 -43 20 -43 22 0 2 -14 42 -31 88 -16 46 -43
122 -60 168 -16 47 -36 95 -44 108 -22 33 -52 29 -75 -9z"/>
<path d="M2748 6544 c-59 -31 -75 -112 -33 -162 35 -42 72 -53 119 -37 61 21
85 66 69 131 -15 65 -95 100 -155 68z"/>
<path d="M6403 6498 c-4 -7 -30 -72 -58 -146 l-50 -134 -122 -55 c-67 -31
-124 -62 -128 -71 -11 -30 7 -50 68 -77 34 -15 90 -41 123 -57 l62 -28 26 -78
c15 -42 31 -86 36 -97 5 -11 14 -37 20 -57 11 -37 23 -51 47 -54 20 -3 28 14
78 154 l48 133 56 25 c164 75 192 90 197 108 9 29 -23 53 -142 105 l-109 47
-51 138 c-53 146 -77 180 -101 144z"/>
<path d="M1098 4990 c-183 -62 -173 -319 15 -371 131 -36 264 92 235 226 -26
118 -137 182 -250 145z"/>
</g>
</svg>
